<svg width="1440" height="900" viewBox="0 0 1440 900" fill="none" xmlns="http://www.w3.org/2000/svg" role="img" aria-labelledby="title desc">
  <title id="title">BuildWise AI product preview placeholder</title>
  <desc id="desc">A static SaaS-style interface placeholder for the BuildWise AI README hero.</desc>
  <rect width="1440" height="900" rx="32" fill="#07100f"/>
  <rect x="40" y="40" width="1360" height="820" rx="28" fill="#f8fafc"/>
  <rect x="40" y="40" width="1360" height="76" rx="28" fill="#0f172a"/>
  <circle cx="88" cy="78" r="10" fill="#ef4444"/>
  <circle cx="120" cy="78" r="10" fill="#f59e0b"/>
  <circle cx="152" cy="78" r="10" fill="#10b981"/>
  <text x="700" y="86" text-anchor="middle" font-family="Inter, Arial, sans-serif" font-size="22" font-weight="700" fill="#ffffff">BuildWise AI</text>
  <rect x="84" y="160" width="500" height="620" rx="24" fill="#0f172a"/>
  <text x="124" y="220" font-family="Inter, Arial, sans-serif" font-size="34" font-weight="800" fill="#ffffff">Compliance Assistant</text>
  <text x="124" y="262" font-family="Inter, Arial, sans-serif" font-size="18" fill="#cbd5e1">Ask authority-aware questions about permits, FAR, setbacks, approvals, and documents.</text>
  <rect x="124" y="318" width="420" height="150" rx="18" fill="#ffffff" opacity="0.08"/>
  <text x="154" y="370" font-family="Inter, Arial, sans-serif" font-size="18" fill="#e2e8f0">Can I build a roof garden in Kanpur?</text>
  <rect x="124" y="502" width="190" height="52" rx="14" fill="#14b8a6"/>
  <text x="219" y="535" text-anchor="middle" font-family="Inter, Arial, sans-serif" font-size="17" font-weight="700" fill="#06211f">Analyze</text>
  <rect x="328" y="502" width="150" height="52" rx="14" fill="#ffffff" opacity="0.1"/>
  <text x="403" y="535" text-anchor="middle" font-family="Inter, Arial, sans-serif" font-size="17" font-weight="700" fill="#ffffff">Example</text>
  <rect x="124" y="610" width="128" height="32" rx="16" fill="#f59e0b" opacity="0.18"/>
  <text x="188" y="632" text-anchor="middle" font-family="Inter, Arial, sans-serif" font-size="14" fill="#fde68a">KDA</text>
  <rect x="266" y="610" width="142" height="32" rx="16" fill="#14b8a6" opacity="0.18"/>
  <text x="337" y="632" text-anchor="middle" font-family="Inter, Arial, sans-serif" font-size="14" fill="#99f6e4">Source-only</text>
  <rect x="624" y="160" width="732" height="292" rx="24" fill="#ffffff" stroke="#dbe4e6"/>
  <text x="668" y="220" font-family="Inter, Arial, sans-serif" font-size="28" font-weight="800" fill="#0f172a">Grounded Answer</text>
  <rect x="668" y="252" width="180" height="34" rx="17" fill="#dcfce7"/>
  <text x="758" y="275" text-anchor="middle" font-family="Inter, Arial, sans-serif" font-size="14" font-weight="700" fill="#166534">High confidence</text>
  <rect x="668" y="322" width="620" height="18" rx="9" fill="#cbd5e1"/>
  <rect x="668" y="358" width="560" height="18" rx="9" fill="#e2e8f0"/>
  <rect x="668" y="394" width="470" height="18" rx="9" fill="#e2e8f0"/>
  <rect x="624" y="488" width="352" height="292" rx="24" fill="#ffffff" stroke="#dbe4e6"/>
  <text x="668" y="548" font-family="Inter, Arial, sans-serif" font-size="24" font-weight="800" fill="#0f172a">Required Approvals</text>
  <circle cx="682" cy="598" r="6" fill="#f59e0b"/>
  <rect x="704" y="590" width="210" height="16" rx="8" fill="#dbe4e6"/>
  <circle cx="682" cy="642" r="6" fill="#f59e0b"/>
  <rect x="704" y="634" width="230" height="16" rx="8" fill="#dbe4e6"/>
  <circle cx="682" cy="686" r="6" fill="#f59e0b"/>
  <rect x="704" y="678" width="180" height="16" rx="8" fill="#dbe4e6"/>
  <rect x="1004" y="488" width="352" height="292" rx="24" fill="#ffffff" stroke="#dbe4e6"/>
  <text x="1048" y="548" font-family="Inter, Arial, sans-serif" font-size="24" font-weight="800" fill="#0f172a">Source References</text>
  <rect x="1048" y="590" width="240" height="18" rx="9" fill="#cbd5e1"/>
  <rect x="1048" y="630" width="200" height="18" rx="9" fill="#e2e8f0"/>
  <rect x="1048" y="670" width="260" height="18" rx="9" fill="#e2e8f0"/>
  <rect x="1048" y="718" width="132" height="36" rx="18" fill="#ecfeff"/>
  <text x="1114" y="741" text-anchor="middle" font-family="Inter, Arial, sans-serif" font-size="14" font-weight="700" fill="#0f766e">Official PDF</text>
</svg>
